<svg xmlns="http://www.w3.org/2000/svg" xmlns:xlink="http://www.w3.org/1999/xlink" width="500" zoomAndPan="magnify" viewBox="0 0 375 374.999991" height="500" preserveAspectRatio="xMidYMid meet" version="1.0"><defs><g/><clipPath id="1f47bddcd5"><path d="M 81.78125 200 L 293.28125 200 L 293.28125 223.496094 L 81.78125 223.496094 Z M 81.78125 200 " clip-rule="nonzero"/></clipPath></defs><path fill="#72cded" d="M 253.261719 140.105469 L 216.824219 140.105469 L 216.824219 149.195312 L 137.894531 189.574219 L 144.207031 167.714844 L 96.207031 189.574219 L 136.433594 177.429688 L 126.164062 205.058594 L 216.824219 162.863281 L 216.824219 173.785156 L 253.261719 140.105469 " fill-opacity="1" fill-rule="nonzero"/><path fill="#145da0" d="M 193.175781 205.058594 L 209.441406 205.058594 L 209.441406 171.039062 L 193.175781 178.609375 L 193.175781 205.058594 " fill-opacity="1" fill-rule="nonzero"/><path fill="#145da0" d="M 137.59375 205.058594 L 153.863281 205.058594 L 153.863281 196.90625 L 137.59375 204.476562 L 137.59375 205.058594 " fill-opacity="1" fill-rule="nonzero"/><path fill="#145da0" d="M 220.964844 174.703125 L 220.964844 205.058594 L 237.230469 205.058594 L 237.230469 159.664062 L 220.964844 174.703125 " fill-opacity="1" fill-rule="nonzero"/><path fill="#145da0" d="M 165.382812 205.058594 L 181.652344 205.058594 L 181.652344 183.972656 L 165.382812 191.542969 L 165.382812 205.058594 " fill-opacity="1" fill-rule="nonzero"/><path fill="#051d40" d="M 193.175781 173.867188 L 193.175781 178.609375 L 209.441406 171.039062 L 209.441406 166.296875 L 193.175781 173.867188 " fill-opacity="1" fill-rule="nonzero"/><path fill="#051d40" d="M 137.59375 199.734375 L 137.59375 204.476562 L 153.863281 196.90625 L 153.863281 192.164062 L 137.59375 199.734375 " fill-opacity="1" fill-rule="nonzero"/><path fill="#051d40" d="M 237.230469 154.921875 L 220.964844 169.960938 L 220.964844 174.703125 L 237.230469 159.664062 L 237.230469 154.921875 " fill-opacity="1" fill-rule="nonzero"/><path fill="#051d40" d="M 165.382812 186.800781 L 165.382812 191.542969 L 181.652344 183.972656 L 181.652344 179.230469 L 165.382812 186.800781 " fill-opacity="1" fill-rule="nonzero"/><path fill="#3193e2" d="M 193.175781 161.296875 L 209.441406 152.972656 L 209.441406 108.917969 C 204.394531 112.851562 198.957031 116.660156 193.175781 120.285156 L 193.175781 161.296875 " fill-opacity="1" fill-rule="nonzero"/><path fill="#3193e2" d="M 165.382812 134.976562 L 165.382812 175.511719 L 181.652344 167.1875 L 181.652344 127.015625 C 181.175781 127.273438 180.699219 127.53125 180.222656 127.785156 C 175.273438 130.425781 170.3125 132.820312 165.382812 134.976562 " fill-opacity="1" fill-rule="nonzero"/><path fill="#3193e2" d="M 220.964844 99.121094 L 220.964844 140.105469 L 237.230469 140.105469 L 237.230469 81.046875 C 232.8125 87.089844 227.339844 93.179688 220.964844 99.121094 " fill-opacity="1" fill-rule="nonzero"/><path fill="#3193e2" d="M 137.59375 170.726562 L 144.207031 167.714844 L 137.894531 189.574219 L 153.863281 181.40625 L 153.863281 139.59375 C 148.34375 141.605469 142.902344 143.300781 137.59375 144.679688 L 137.59375 170.726562 " fill-opacity="1" fill-rule="nonzero"/><g clip-path="url(#1f47bddcd5)"><path fill="#145da0" d="M 187.503906 209.605469 C 227.496094 209.605469 264.246094 214.667969 293.222656 223.128906 C 271.984375 209.878906 232.589844 200.980469 187.503906 200.980469 C 142.417969 200.980469 103.027344 209.878906 81.785156 223.128906 C 110.761719 214.667969 147.515625 209.605469 187.503906 209.605469 " fill-opacity="1" fill-rule="nonzero"/></g><g fill="#3193e2" fill-opacity="1"><g transform="translate(64.211711, 265.123387)"><g><path d="M 21.078125 0 L 14.84375 -10.203125 L 8.234375 -10.203125 L 8.234375 0 L 2.609375 0 L 2.609375 -26.875 L 16.046875 -26.875 C 19.242188 -26.875 21.710938 -26.179688 23.453125 -24.796875 C 25.203125 -23.421875 26.078125 -21.441406 26.078125 -18.859375 C 26.078125 -16.984375 25.539062 -15.359375 24.46875 -13.984375 C 23.40625 -12.617188 21.960938 -11.722656 20.140625 -11.296875 L 27.40625 0 Z M 20.40625 -18.640625 C 20.40625 -21.210938 18.753906 -22.5 15.453125 -22.5 L 8.234375 -22.5 L 8.234375 -14.578125 L 15.609375 -14.578125 C 17.179688 -14.578125 18.375 -14.929688 19.1875 -15.640625 C 20 -16.347656 20.40625 -17.347656 20.40625 -18.640625 Z M 20.40625 -18.640625 "/></g></g></g><g fill="#3193e2" fill-opacity="1"><g transform="translate(90.817019, 265.123387)"><g><path d="M 1.71875 -7.34375 C 1.71875 -9.0625 2.234375 -10.585938 3.265625 -11.921875 C 4.296875 -13.265625 5.925781 -14.457031 8.15625 -15.5 C 7.21875 -17.414062 6.75 -19.191406 6.75 -20.828125 C 6.75 -22.804688 7.367188 -24.332031 8.609375 -25.40625 C 9.859375 -26.488281 11.632812 -27.03125 13.9375 -27.03125 C 16.070312 -27.03125 17.757812 -26.519531 19 -25.5 C 20.238281 -24.476562 20.859375 -23.097656 20.859375 -21.359375 C 20.859375 -20.378906 20.609375 -19.492188 20.109375 -18.703125 C 19.617188 -17.921875 18.921875 -17.191406 18.015625 -16.515625 C 17.109375 -15.835938 15.566406 -14.992188 13.390625 -13.984375 C 14.648438 -11.753906 16.203125 -9.617188 18.046875 -7.578125 C 19.367188 -9.578125 20.375 -11.882812 21.0625 -14.5 L 25.046875 -13.15625 C 24.179688 -10.195312 22.953125 -7.53125 21.359375 -5.15625 C 22.453125 -4.21875 23.582031 -3.75 24.75 -3.75 C 25.582031 -3.75 26.328125 -3.851562 26.984375 -4.0625 L 26.984375 -0.1875 C 26.285156 0.09375 25.453125 0.234375 24.484375 0.234375 C 23.390625 0.234375 22.289062 0.0351562 21.1875 -0.359375 C 20.09375 -0.753906 19.097656 -1.328125 18.203125 -2.078125 C 16.035156 -0.441406 13.625 0.375 10.96875 0.375 C 8.03125 0.375 5.753906 -0.300781 4.140625 -1.65625 C 2.523438 -3.007812 1.71875 -4.90625 1.71875 -7.34375 Z M 16.59375 -21.328125 C 16.59375 -22.046875 16.347656 -22.632812 15.859375 -23.09375 C 15.378906 -23.550781 14.726562 -23.78125 13.90625 -23.78125 C 12.925781 -23.78125 12.175781 -23.503906 11.65625 -22.953125 C 11.144531 -22.410156 10.890625 -21.691406 10.890625 -20.796875 C 10.890625 -19.679688 11.234375 -18.453125 11.921875 -17.109375 C 13.253906 -17.679688 14.207031 -18.164062 14.78125 -18.5625 C 15.363281 -18.957031 15.8125 -19.375 16.125 -19.8125 C 16.4375 -20.257812 16.59375 -20.765625 16.59375 -21.328125 Z M 15.03125 -4.6875 C 12.914062 -7.039062 11.1875 -9.4375 9.84375 -11.875 C 7.65625 -10.851562 6.5625 -9.367188 6.5625 -7.421875 C 6.5625 -6.160156 6.972656 -5.148438 7.796875 -4.390625 C 8.628906 -3.628906 9.753906 -3.25 11.171875 -3.25 C 12.003906 -3.25 12.753906 -3.398438 13.421875 -3.703125 C 14.085938 -4.003906 14.625 -4.332031 15.03125 -4.6875 Z M 15.03125 -4.6875 "/></g></g></g><g fill="#3193e2" fill-opacity="1"><g transform="translate(117.422328, 265.123387)"><g><path d="M 21.171875 -7.859375 C 21.171875 -5.554688 20.394531 -3.769531 18.84375 -2.5 C 17.300781 -1.238281 15.019531 -0.550781 12 -0.4375 L 12 2.90625 L 9.921875 2.90625 L 9.921875 -0.375 C 7.179688 -0.476562 5.046875 -1.125 3.515625 -2.3125 C 1.992188 -3.5 0.992188 -5.320312 0.515625 -7.78125 L 5.390625 -8.671875 C 5.640625 -7.234375 6.125 -6.179688 6.84375 -5.515625 C 7.5625 -4.847656 8.585938 -4.453125 9.921875 -4.328125 L 9.921875 -11.78125 C 9.878906 -11.8125 9.78125 -11.84375 9.625 -11.875 C 9.476562 -11.90625 9.378906 -11.921875 9.328125 -11.921875 C 7.265625 -12.390625 5.707031 -12.941406 4.65625 -13.578125 C 3.613281 -14.222656 2.804688 -15.039062 2.234375 -16.03125 C 1.660156 -17.019531 1.375 -18.222656 1.375 -19.640625 C 1.375 -21.753906 2.097656 -23.390625 3.546875 -24.546875 C 5.003906 -25.703125 7.128906 -26.332031 9.921875 -26.4375 L 9.921875 -28.984375 L 12 -28.984375 L 12 -26.4375 C 13.664062 -26.375 15.050781 -26.109375 16.15625 -25.640625 C 17.269531 -25.179688 18.164062 -24.503906 18.84375 -23.609375 C 19.53125 -22.710938 20.082031 -21.429688 20.5 -19.765625 L 15.46875 -19.015625 C 15.28125 -20.117188 14.90625 -20.972656 14.34375 -21.578125 C 13.789062 -22.179688 13.007812 -22.554688 12 -22.703125 L 12 -15.984375 L 12.203125 -15.953125 C 12.578125 -15.953125 13.703125 -15.644531 15.578125 -15.03125 C 17.453125 -14.414062 18.851562 -13.515625 19.78125 -12.328125 C 20.707031 -11.140625 21.171875 -9.648438 21.171875 -7.859375 Z M 9.921875 -22.78125 C 7.554688 -22.59375 6.375 -21.570312 6.375 -19.71875 C 6.375 -19.15625 6.472656 -18.691406 6.671875 -18.328125 C 6.867188 -17.960938 7.15625 -17.65625 7.53125 -17.40625 C 7.90625 -17.164062 8.703125 -16.84375 9.921875 -16.4375 Z M 16.21875 -7.78125 C 16.21875 -8.414062 16.101562 -8.929688 15.875 -9.328125 C 15.644531 -9.734375 15.304688 -10.0625 14.859375 -10.3125 C 14.421875 -10.570312 13.46875 -10.910156 12 -11.328125 L 12 -4.328125 C 14.8125 -4.515625 16.21875 -5.664062 16.21875 -7.78125 Z M 16.21875 -7.78125 "/></g></g></g><g fill="#3193e2" fill-opacity="1"><g transform="translate(137.5433, 265.123387)"><g/></g></g><g fill="#3193e2" fill-opacity="1"><g transform="translate(146.793473, 265.123387)"><g><path d="M 8.234375 -22.53125 L 8.234375 -14.203125 L 21.984375 -14.203125 L 21.984375 -9.859375 L 8.234375 -9.859375 L 8.234375 0 L 2.609375 0 L 2.609375 -26.875 L 22.4375 -26.875 L 22.4375 -22.53125 Z M 8.234375 -22.53125 "/></g></g></g><g fill="#3193e2" fill-opacity="1"><g transform="translate(169.050457, 265.123387)"><g><path d="M 2.609375 0 L 2.609375 -26.875 L 8.234375 -26.875 L 8.234375 0 Z M 2.609375 0 "/></g></g></g><g fill="#3193e2" fill-opacity="1"><g transform="translate(178.300624, 265.123387)"><g><path d="M 18.984375 0 L 7.265625 -20.6875 C 7.492188 -18.6875 7.609375 -17.070312 7.609375 -15.84375 L 7.609375 0 L 2.609375 0 L 2.609375 -26.875 L 9.046875 -26.875 L 20.921875 -6.015625 C 20.691406 -7.929688 20.578125 -9.675781 20.578125 -11.25 L 20.578125 -26.875 L 25.578125 -26.875 L 25.578125 0 Z M 18.984375 0 "/></g></g></g><g fill="#3193e2" fill-opacity="1"><g transform="translate(204.905939, 265.123387)"><g><path d="M 21.609375 0 L 19.21875 -6.859375 L 8.984375 -6.859375 L 6.59375 0 L 0.96875 0 L 10.78125 -26.875 L 17.421875 -26.875 L 27.1875 0 Z M 14.09375 -22.734375 L 13.984375 -22.3125 C 13.859375 -21.851562 13.703125 -21.332031 13.515625 -20.75 C 13.335938 -20.164062 12.25 -16.945312 10.25 -11.09375 L 17.96875 -11.09375 L 15.3125 -18.828125 L 14.5 -21.421875 Z M 14.09375 -22.734375 "/></g></g></g><g fill="#3193e2" fill-opacity="1"><g transform="translate(231.511253, 265.123387)"><g><path d="M 18.984375 0 L 7.265625 -20.6875 C 7.492188 -18.6875 7.609375 -17.070312 7.609375 -15.84375 L 7.609375 0 L 2.609375 0 L 2.609375 -26.875 L 9.046875 -26.875 L 20.921875 -6.015625 C 20.691406 -7.929688 20.578125 -9.675781 20.578125 -11.25 L 20.578125 -26.875 L 25.578125 -26.875 L 25.578125 0 Z M 18.984375 0 "/></g></g></g><g fill="#3193e2" fill-opacity="1"><g transform="translate(258.116568, 265.123387)"><g><path d="M 15.15625 -4.046875 C 18.550781 -4.046875 20.910156 -5.75 22.234375 -9.15625 L 27.140625 -7.3125 C 26.085938 -4.71875 24.539062 -2.785156 22.5 -1.515625 C 20.457031 -0.253906 18.007812 0.375 15.15625 0.375 C 10.832031 0.375 7.492188 -0.847656 5.140625 -3.296875 C 2.785156 -5.742188 1.609375 -9.164062 1.609375 -13.5625 C 1.609375 -17.976562 2.742188 -21.367188 5.015625 -23.734375 C 7.296875 -26.097656 10.597656 -27.28125 14.921875 -27.28125 C 18.066406 -27.28125 20.628906 -26.644531 22.609375 -25.375 C 24.597656 -24.113281 25.992188 -22.253906 26.796875 -19.796875 L 21.84375 -18.4375 C 21.414062 -19.789062 20.585938 -20.863281 19.359375 -21.65625 C 18.140625 -22.445312 16.695312 -22.84375 15.03125 -22.84375 C 12.488281 -22.84375 10.554688 -22.054688 9.234375 -20.484375 C 7.921875 -18.910156 7.265625 -16.601562 7.265625 -13.5625 C 7.265625 -10.46875 7.941406 -8.109375 9.296875 -6.484375 C 10.648438 -4.859375 12.601562 -4.046875 15.15625 -4.046875 Z M 15.15625 -4.046875 "/></g></g></g><g fill="#3193e2" fill-opacity="1"><g transform="translate(284.721882, 265.123387)"><g><path d="M 2.609375 0 L 2.609375 -26.875 L 23.75 -26.875 L 23.75 -22.53125 L 8.234375 -22.53125 L 8.234375 -15.78125 L 22.578125 -15.78125 L 22.578125 -11.421875 L 8.234375 -11.421875 L 8.234375 -4.34375 L 24.53125 -4.34375 L 24.53125 0 Z M 2.609375 0 "/></g></g></g></svg>