<svg xmlns="http://www.w3.org/2000/svg" xmlns:xlink="http://www.w3.org/1999/xlink" version="1.1" width="1000" height="1000" viewBox="0 0 1000 1000" xml:space="preserve">
<desc>Created with Fabric.js 3.5.0</desc>
<defs>
</defs>
<rect x="0" y="0" width="100%" height="100%" fill="#ffffff"/>
<g transform="matrix(2.3334 0 0 2.3334 269.4682 307.8889)" id="610068">
<path style="stroke: none; stroke-width: 1; stroke-dasharray: none; stroke-linecap: butt; stroke-dashoffset: 0; stroke-linejoin: miter; stroke-miterlimit: 4; is-custom-font: none; font-file-url: none; fill: rgb(0,0,0); fill-rule: nonzero; opacity: 1;" vector-effect="non-scaling-stroke" transform=" translate(-136.0031, -136.0031)" d="M 128 128 a 8 8 0 0 1 -8 8 H 48 a 8 8 0 0 1 0 -16 h 72 A 8 8 0 0 1 128 128 Z M 48 72 H 184 a 8 8 0 0 0 0 -16 H 48 a 8 8 0 0 0 0 16 Z m 56 112 H 48 a 8 8 0 0 0 0 16 h 56 a 8 8 0 0 0 0 -16 Z m 125.66 -21.66 a 8 8 0 0 0 -11.32 0 L 192 188.69 V 112 a 8 8 0 0 0 -16 0 v 76.69 l -26.34 -26.35 a 8 8 0 0 0 -11.32 11.32 l 40 40 a 8 8 0 0 0 11.32 0 l 40 -40 A 8 8 0 0 0 229.66 162.34 Z" stroke-linecap="round"/>
</g>
</svg>